<mxfile host="app.diagrams.net" modified="2022-11-30T13:02:50.456Z" agent="5.0 (Windows NT 10.0; Win64; x64) AppleWebKit/537.36 (KHTML, like Gecko) Chrome/108.0.0.0 Safari/537.36" etag="CXOe-ZusNzIkVvRkt2wE" version="20.6.0" type="github">
  <diagram id="rZNKcQVRgwQoaFxtKG_b" name="fieldStatus Trenes">
    <mxGraphModel dx="1422" dy="705" grid="1" gridSize="10" guides="1" tooltips="1" connect="1" arrows="1" fold="1" page="1" pageScale="1" pageWidth="827" pageHeight="1169" math="0" shadow="0">
      <root>
        <mxCell id="0" />
        <mxCell id="1" parent="0" />
        <mxCell id="ZRtJbHR1mi0dNfsnCUMY-37" value="" style="rounded=0;whiteSpace=wrap;html=1;fillColor=#d5e8d4;strokeColor=#82b366;" parent="1" vertex="1">
          <mxGeometry x="590" y="530" width="540" height="160" as="geometry" />
        </mxCell>
        <mxCell id="ZRtJbHR1mi0dNfsnCUMY-33" value="" style="rounded=0;whiteSpace=wrap;html=1;fillColor=#fff2cc;strokeColor=#d6b656;" parent="1" vertex="1">
          <mxGeometry x="110" y="60" width="280" height="380" as="geometry" />
        </mxCell>
        <mxCell id="ZRtJbHR1mi0dNfsnCUMY-32" value="" style="rounded=0;whiteSpace=wrap;html=1;fillColor=#f8cecc;strokeColor=#b85450;" parent="1" vertex="1">
          <mxGeometry x="60" y="550" width="450" height="260" as="geometry" />
        </mxCell>
        <mxCell id="ZRtJbHR1mi0dNfsnCUMY-20" value="" style="rounded=0;whiteSpace=wrap;html=1;fillColor=#dae8fc;strokeColor=#6c8ebf;" parent="1" vertex="1">
          <mxGeometry x="630" y="140" width="190" height="280" as="geometry" />
        </mxCell>
        <mxCell id="ZRtJbHR1mi0dNfsnCUMY-1" value="pdsTest&lt;br&gt;escenario" style="whiteSpace=wrap;html=1;aspect=fixed;" parent="1" vertex="1">
          <mxGeometry x="10" y="60" width="80" height="80" as="geometry" />
        </mxCell>
        <mxCell id="ZRtJbHR1mi0dNfsnCUMY-6" style="edgeStyle=orthogonalEdgeStyle;rounded=0;orthogonalLoop=1;jettySize=auto;html=1;" parent="1" source="ZRtJbHR1mi0dNfsnCUMY-2" target="ZRtJbHR1mi0dNfsnCUMY-3" edge="1">
          <mxGeometry relative="1" as="geometry">
            <Array as="points">
              <mxPoint x="350" y="110" />
              <mxPoint x="350" y="110" />
            </Array>
          </mxGeometry>
        </mxCell>
        <mxCell id="ZRtJbHR1mi0dNfsnCUMY-7" value="JMS" style="edgeLabel;html=1;align=center;verticalAlign=middle;resizable=0;points=[];" parent="ZRtJbHR1mi0dNfsnCUMY-6" vertex="1" connectable="0">
          <mxGeometry relative="1" as="geometry">
            <mxPoint as="offset" />
          </mxGeometry>
        </mxCell>
        <mxCell id="ZRtJbHR1mi0dNfsnCUMY-2" value="FEC" style="rounded=1;whiteSpace=wrap;html=1;" parent="1" vertex="1">
          <mxGeometry x="180" y="80" width="120" height="60" as="geometry" />
        </mxCell>
        <mxCell id="ZRtJbHR1mi0dNfsnCUMY-8" style="edgeStyle=orthogonalEdgeStyle;rounded=0;orthogonalLoop=1;jettySize=auto;html=1;exitX=0.25;exitY=1;exitDx=0;exitDy=0;exitPerimeter=0;entryX=0.75;entryY=0;entryDx=0;entryDy=0;" parent="1" source="ZRtJbHR1mi0dNfsnCUMY-3" target="ZRtJbHR1mi0dNfsnCUMY-4" edge="1">
          <mxGeometry relative="1" as="geometry">
            <Array as="points">
              <mxPoint x="462" y="170" />
              <mxPoint x="278" y="170" />
            </Array>
          </mxGeometry>
        </mxCell>
        <mxCell id="ZRtJbHR1mi0dNfsnCUMY-9" value="JMS" style="edgeLabel;html=1;align=center;verticalAlign=middle;resizable=0;points=[];" parent="ZRtJbHR1mi0dNfsnCUMY-8" vertex="1" connectable="0">
          <mxGeometry x="0.1857" y="1" relative="1" as="geometry">
            <mxPoint as="offset" />
          </mxGeometry>
        </mxCell>
        <mxCell id="ZRtJbHR1mi0dNfsnCUMY-3" value=".queue.fecsimence.fieldstatus" style="shape=tape;whiteSpace=wrap;html=1;fillColor=#fff2cc;strokeColor=#d6b656;" parent="1" vertex="1">
          <mxGeometry x="414" y="85" width="190" height="50" as="geometry" />
        </mxCell>
        <mxCell id="ZRtJbHR1mi0dNfsnCUMY-15" style="edgeStyle=orthogonalEdgeStyle;rounded=0;orthogonalLoop=1;jettySize=auto;html=1;entryX=0.333;entryY=0.333;entryDx=0;entryDy=0;entryPerimeter=0;" parent="1" source="ZRtJbHR1mi0dNfsnCUMY-4" target="ZRtJbHR1mi0dNfsnCUMY-14" edge="1">
          <mxGeometry relative="1" as="geometry" />
        </mxCell>
        <mxCell id="ZRtJbHR1mi0dNfsnCUMY-4" value="&lt;a style=&quot;box-sizing: inherit; background-color: rgba(218, 195, 66, 0.1); text-decoration-line: none; font-family: &amp;quot;Fira Sans&amp;quot;; font-size: 14px; text-align: -webkit-left;&quot; class=&quot;&quot; href=&quot;https://rancher.mova.indra.es/dashboard/c/c-dssds/explorer/apps.deployment/opefrvtms-int/opefrvh56-int-synoptic-manager-tmsint&quot;&gt;opefrvh56-int-synoptic-manager-tmsint&lt;/a&gt;&lt;br&gt;&lt;span style=&quot;color: rgb(20, 20, 25); font-family: &amp;quot;Fira Sans&amp;quot;; font-size: 14px; text-align: -webkit-left; background-color: rgba(218, 195, 66, 0.1);&quot;&gt;2.0.4&lt;/span&gt;" style="rounded=1;whiteSpace=wrap;html=1;" parent="1" vertex="1">
          <mxGeometry x="165" y="320" width="150" height="70" as="geometry" />
        </mxCell>
        <mxCell id="ZRtJbHR1mi0dNfsnCUMY-5" value="protocolo" style="endArrow=classic;html=1;rounded=0;entryX=0;entryY=0.4;entryDx=0;entryDy=0;entryPerimeter=0;" parent="1" source="ZRtJbHR1mi0dNfsnCUMY-1" target="ZRtJbHR1mi0dNfsnCUMY-2" edge="1">
          <mxGeometry width="50" height="50" relative="1" as="geometry">
            <mxPoint x="390" y="410" as="sourcePoint" />
            <mxPoint x="440" y="360" as="targetPoint" />
          </mxGeometry>
        </mxCell>
        <mxCell id="ZRtJbHR1mi0dNfsnCUMY-10" value="Synoptic FRONT" style="rounded=0;whiteSpace=wrap;html=1;" parent="1" vertex="1">
          <mxGeometry x="155" y="710" width="310" height="60" as="geometry" />
        </mxCell>
        <mxCell id="ZRtJbHR1mi0dNfsnCUMY-13" style="edgeStyle=orthogonalEdgeStyle;rounded=0;orthogonalLoop=1;jettySize=auto;html=1;" parent="1" source="ZRtJbHR1mi0dNfsnCUMY-12" target="ZRtJbHR1mi0dNfsnCUMY-10" edge="1">
          <mxGeometry relative="1" as="geometry" />
        </mxCell>
        <mxCell id="ZRtJbHR1mi0dNfsnCUMY-12" value="NOTIFICATION MANAGER" style="shape=process;whiteSpace=wrap;html=1;backgroundOutline=1;" parent="1" vertex="1">
          <mxGeometry x="110" y="585" width="120" height="60" as="geometry" />
        </mxCell>
        <mxCell id="ZRtJbHR1mi0dNfsnCUMY-16" style="edgeStyle=orthogonalEdgeStyle;rounded=0;orthogonalLoop=1;jettySize=auto;html=1;entryX=0.5;entryY=0;entryDx=0;entryDy=0;exitX=0.442;exitY=0.9;exitDx=0;exitDy=0;exitPerimeter=0;" parent="1" source="ZRtJbHR1mi0dNfsnCUMY-14" target="ZRtJbHR1mi0dNfsnCUMY-12" edge="1">
          <mxGeometry relative="1" as="geometry">
            <Array as="points">
              <mxPoint x="266" y="520" />
              <mxPoint x="260" y="520" />
              <mxPoint x="260" y="530" />
              <mxPoint x="170" y="530" />
            </Array>
          </mxGeometry>
        </mxCell>
        <mxCell id="ZRtJbHR1mi0dNfsnCUMY-14" value="queue.synopticmanager.synopticelement" style="shape=tape;whiteSpace=wrap;html=1;fillColor=#f8cecc;strokeColor=#b85450;" parent="1" vertex="1">
          <mxGeometry x="160" y="450" width="240" height="60" as="geometry" />
        </mxCell>
        <mxCell id="ZRtJbHR1mi0dNfsnCUMY-22" style="edgeStyle=orthogonalEdgeStyle;rounded=0;orthogonalLoop=1;jettySize=auto;html=1;" parent="1" source="ZRtJbHR1mi0dNfsnCUMY-17" target="ZRtJbHR1mi0dNfsnCUMY-18" edge="1">
          <mxGeometry relative="1" as="geometry">
            <Array as="points">
              <mxPoint x="700" y="440" />
              <mxPoint x="700" y="440" />
            </Array>
          </mxGeometry>
        </mxCell>
        <mxCell id="ZRtJbHR1mi0dNfsnCUMY-23" value="OBTENER NUMERO DE TREN" style="edgeLabel;html=1;align=center;verticalAlign=middle;resizable=0;points=[];" parent="ZRtJbHR1mi0dNfsnCUMY-22" vertex="1" connectable="0">
          <mxGeometry x="-0.36" y="-1" relative="1" as="geometry">
            <mxPoint x="-9" y="27" as="offset" />
          </mxGeometry>
        </mxCell>
        <mxCell id="w7piU8O7_xjdNptFkDuD-4" style="edgeStyle=orthogonalEdgeStyle;rounded=0;orthogonalLoop=1;jettySize=auto;html=1;entryX=1;entryY=0.5;entryDx=0;entryDy=0;" parent="1" source="ZRtJbHR1mi0dNfsnCUMY-17" target="ZRtJbHR1mi0dNfsnCUMY-18" edge="1">
          <mxGeometry relative="1" as="geometry">
            <Array as="points">
              <mxPoint x="1030" y="310" />
              <mxPoint x="1030" y="650" />
            </Array>
          </mxGeometry>
        </mxCell>
        <mxCell id="w7piU8O7_xjdNptFkDuD-5" value="ACTUALIZAR POSICION" style="edgeLabel;html=1;align=center;verticalAlign=middle;resizable=0;points=[];" parent="w7piU8O7_xjdNptFkDuD-4" vertex="1" connectable="0">
          <mxGeometry x="-0.1733" y="3" relative="1" as="geometry">
            <mxPoint as="offset" />
          </mxGeometry>
        </mxCell>
        <mxCell id="ZRtJbHR1mi0dNfsnCUMY-17" value="&lt;a style=&quot;box-sizing: inherit; background-color: rgba(218, 195, 66, 0.1); text-decoration-line: none; font-family: &amp;quot;Fira Sans&amp;quot;; font-size: 14px; text-align: -webkit-left;&quot; class=&quot;&quot; href=&quot;https://rancher.mova.indra.es/dashboard/c/c-dssds/explorer/apps.deployment/opefrvtms-int/opefrvh56-int-trains-scope1-tmsint&quot;&gt;opefrvh56-int-trains-scope1-tmsint&lt;/a&gt;&lt;br&gt;&lt;span style=&quot;color: rgb(20, 20, 25); font-family: &amp;quot;Fira Sans&amp;quot;; font-size: 14px; text-align: -webkit-left; background-color: rgba(218, 195, 66, 0.1);&quot;&gt;develop&lt;/span&gt;" style="rounded=1;whiteSpace=wrap;html=1;" parent="1" vertex="1">
          <mxGeometry x="670" y="280" width="120" height="60" as="geometry" />
        </mxCell>
        <mxCell id="ZRtJbHR1mi0dNfsnCUMY-18" value="opefrvh60-int-activeplanmng-dataaccess-tmsint&lt;br&gt;&lt;span style=&quot;color: rgb(20, 20, 25); font-family: &amp;quot;Fira Sans&amp;quot;; font-size: 14px; text-align: -webkit-left; background-color: rgba(218, 195, 66, 0.1);&quot;&gt;develop&lt;/span&gt;" style="rounded=1;whiteSpace=wrap;html=1;" parent="1" vertex="1">
          <mxGeometry x="604" y="620" width="120" height="60" as="geometry" />
        </mxCell>
        <mxCell id="ZRtJbHR1mi0dNfsnCUMY-19" value="" style="endArrow=classic;html=1;rounded=0;entryX=0.5;entryY=0;entryDx=0;entryDy=0;" parent="1" source="ZRtJbHR1mi0dNfsnCUMY-3" target="ZRtJbHR1mi0dNfsnCUMY-17" edge="1">
          <mxGeometry width="50" height="50" relative="1" as="geometry">
            <mxPoint x="620" y="165" as="sourcePoint" />
            <mxPoint x="470" y="350" as="targetPoint" />
            <Array as="points">
              <mxPoint x="730" y="115" />
              <mxPoint x="730" y="165" />
            </Array>
          </mxGeometry>
        </mxCell>
        <mxCell id="ZRtJbHR1mi0dNfsnCUMY-24" value="" style="endArrow=classic;html=1;rounded=0;entryX=1;entryY=0.5;entryDx=0;entryDy=0;entryPerimeter=0;" parent="1" source="ZRtJbHR1mi0dNfsnCUMY-17" target="ZRtJbHR1mi0dNfsnCUMY-26" edge="1">
          <mxGeometry width="50" height="50" relative="1" as="geometry">
            <mxPoint x="390" y="400" as="sourcePoint" />
            <mxPoint x="440" y="350" as="targetPoint" />
          </mxGeometry>
        </mxCell>
        <mxCell id="ZRtJbHR1mi0dNfsnCUMY-30" style="edgeStyle=orthogonalEdgeStyle;rounded=0;orthogonalLoop=1;jettySize=auto;html=1;exitX=0;exitY=0.65;exitDx=0;exitDy=0;exitPerimeter=0;" parent="1" source="ZRtJbHR1mi0dNfsnCUMY-26" target="ZRtJbHR1mi0dNfsnCUMY-4" edge="1">
          <mxGeometry relative="1" as="geometry" />
        </mxCell>
        <mxCell id="ZRtJbHR1mi0dNfsnCUMY-26" value=".queue.tracking.trains" style="shape=tape;whiteSpace=wrap;html=1;fillColor=#dae8fc;strokeColor=#6c8ebf;" parent="1" vertex="1">
          <mxGeometry x="430" y="280" width="120" height="70" as="geometry" />
        </mxCell>
        <mxCell id="ZRtJbHR1mi0dNfsnCUMY-34" value="" style="ellipse;whiteSpace=wrap;html=1;aspect=fixed;" parent="1" vertex="1">
          <mxGeometry x="700" y="590" width="30" height="30" as="geometry" />
        </mxCell>
        <mxCell id="ZRtJbHR1mi0dNfsnCUMY-35" value="/api/activeplanmng/circulation/create" style="rounded=0;whiteSpace=wrap;html=1;" parent="1" vertex="1">
          <mxGeometry x="700" y="560" width="200" height="30" as="geometry" />
        </mxCell>
        <mxCell id="w7piU8O7_xjdNptFkDuD-1" value="TMM" style="rounded=0;whiteSpace=wrap;html=1;" parent="1" vertex="1">
          <mxGeometry x="610" y="530" width="60" height="30" as="geometry" />
        </mxCell>
        <mxCell id="w7piU8O7_xjdNptFkDuD-2" value="TRENES" style="rounded=0;whiteSpace=wrap;html=1;" parent="1" vertex="1">
          <mxGeometry x="630" y="140" width="60" height="30" as="geometry" />
        </mxCell>
        <mxCell id="w7piU8O7_xjdNptFkDuD-11" value="" style="edgeStyle=orthogonalEdgeStyle;rounded=0;orthogonalLoop=1;jettySize=auto;html=1;" parent="1" source="w7piU8O7_xjdNptFkDuD-6" target="w7piU8O7_xjdNptFkDuD-8" edge="1">
          <mxGeometry relative="1" as="geometry" />
        </mxCell>
        <mxCell id="w7piU8O7_xjdNptFkDuD-6" value="" style="ellipse;whiteSpace=wrap;html=1;aspect=fixed;" parent="1" vertex="1">
          <mxGeometry x="724" y="650" width="30" height="30" as="geometry" />
        </mxCell>
        <mxCell id="w7piU8O7_xjdNptFkDuD-8" value="/api/activeplanmng/circulation/position" style="rounded=0;whiteSpace=wrap;html=1;" parent="1" vertex="1">
          <mxGeometry x="755" y="650" width="210" height="30" as="geometry" />
        </mxCell>
      </root>
    </mxGraphModel>
  </diagram>
</mxfile>
